<svg height="512pt" viewBox="0 -30 512.00149 512" width="512pt" xmlns="http://www.w3.org/2000/svg"><path d="m111.523438 101.496094s-53.847657-12.90625-81.792969 18.265625c-8.753907 9.765625-15.921875 16.261719-21.644531 20.578125-9.339844 7.042968-10.855469 20.484375-3.144532 29.277344 21.132813 24.089843 64.792969 57.164062 132.027344 29.984374-2.984375-1.375-25.445312-98.105468-25.445312-98.105468zm0 0" fill="#516980"/><path d="m4.945312 169.617188c21.128907 24.089843 64.789063 57.164062 132.023438 29.984374-1.078125-.496093-4.707031-13.464843-8.894531-29.820312-64.082031-14.378906-123.128907-.164062-123.128907-.164062zm0 0" fill="#ff83b4"/><path d="m400.476562 101.496094s53.847657-12.90625 81.792969 18.265625c8.753907 9.765625 15.925781 16.261719 21.644531 20.578125 9.339844 7.042968 10.859376 20.484375 3.144532 29.277344-21.132813 24.089843-64.792969 57.164062-132.023438 29.984374 2.980469-1.375 25.441406-98.105468 25.441406-98.105468zm0 0" fill="#6a829a"/><path d="m507.058594 169.617188c-21.132813 24.089843-64.792969 57.164062-132.027344 29.984374 1.082031-.496093 4.707031-13.464843 8.898438-29.820312 64.082031-14.378906 123.128906-.164062 123.128906-.164062zm0 0" fill="#ffabcd"/><path d="m162.953125 76.207031s-30.902344 5.289063-38.257813-22.753906c-3.125-11.921875 1.792969-25.417969 8.484376-37 5.378906-9.304687-4.660157-20-14.332032-15.3125-29.984375 14.53125-65.703125 43.75-50.546875 97.828125 9.28125 33.125 31.601563 49.335938 55.875 56.660156zm0 0" fill="#fcf5af"/><path d="m349.046875 76.207031s30.902344 5.289063 38.257813-22.753906c3.128906-11.921875-1.792969-25.417969-8.484376-37-5.375-9.304687 4.660157-20 14.335938-15.3125 29.980469 14.53125 65.699219 43.75 50.546875 97.828125-9.285156 33.121094-31.601563 49.335938-55.878906 56.660156zm0 0" fill="#fcf5af"/><path d="m256 53.453125c-155.628906 0-197.816406 132.683594-147.484375 194.121094 50.328125 61.433593 47.652344 122.238281 47.652344 122.238281h199.664062s-2.675781-60.804688 47.65625-122.238281c50.328125-61.4375 8.144531-194.121094-147.488281-194.121094zm0 0" fill="#889cb0"/><path d="m331.707031 369.8125c-42.546875-105.269531-129.671875-99.644531-145.886719-178.773438-20.234374-98.75 42.75-135.777343 43.496094-136.210937-133.636718 14.234375-168.125 134.984375-120.804687 192.746094 50.328125 61.433593 47.652343 122.238281 47.652343 122.238281zm0 0" fill="#6a829a"/><path d="m362.140625 368.53125c0 46.625-47.519531 84.421875-106.140625 84.421875s-106.140625-37.796875-106.140625-84.421875c0-46.621094 47.523437-160.058594 106.140625-160.058594 58.621094 0 106.140625 113.4375 106.140625 160.058594zm0 0" fill="#a4e7ff"/><path d="m229.3125 357.394531c-12.140625-12.140625-30.089844-13.878906-40.089844-3.878906-10 10.003906-8.261718 27.949219 3.878906 40.089844 12.140626 12.144531 30.089844 13.878906 40.089844 3.878906s8.261719-27.949219-3.878906-40.089844zm0 0" fill="#516980"/><path d="m189.234375 376.3125c10-10 27.949219-8.265625 40.089844 3.875 3.519531 3.519531 6.160156 7.535156 7.898437 11.699219 5.101563-10.222657 2.21875-24.375-7.898437-34.492188-12.140625-12.140625-30.089844-13.875-40.089844-3.875-7.101563 7.097657-8.285156 18.222657-4.027344 28.414063 1.019531-2.046875 2.359375-3.957032 4.027344-5.621094zm0 0" fill="#3e4f61"/><path d="m282.683594 357.402344c-12.140625 12.140625-13.875 30.089844-3.875 40.089844s27.945312 8.261718 40.089844-3.878907c12.140624-12.140625 13.875-30.089843 3.875-40.089843s-27.949219-8.261719-40.089844 3.878906zm0 0" fill="#516980"/><path d="m322.769531 376.3125c-10-10-27.953125-8.265625-40.09375 3.875-3.519531 3.519531-6.160156 7.535156-7.898437 11.699219-5.101563-10.222657-2.214844-24.375 7.898437-34.492188 12.140625-12.140625 30.09375-13.875 40.09375-3.875 7.097657 7.101563 8.28125 18.226563 4.023438 28.417969-1.019531-2.046875-2.355469-3.960938-4.023438-5.625zm0 0" fill="#3e4f61"/><path d="m284.113281 109.738281c31.519531-25.601562 69.003907-33.417969 69.597657-33.542969-25.34375-14.015624-57.824219-22.742187-97.738282-22.742187-39.910156 0-72.339844 8.738281-97.683594 22.753906.59375.121094 38.023438 7.925781 69.542969 33.53125 16.457031 13.367188 39.824219 13.367188 56.28125 0zm0 0" fill="#a4e7ff"/><path d="m352.601562 238.007812c-4.269531 0-7.726562-3.460937-7.726562-7.726562v-12.828125c0-4.265625 3.457031-7.726563 7.726562-7.726563 4.265626 0 7.726563 3.460938 7.726563 7.726563v12.828125c0 4.265625-3.460937 7.726562-7.726563 7.726562zm0 0" fill="#454545"/><path d="m159.402344 238.007812c-4.269532 0-7.726563-3.460937-7.726563-7.726562v-12.828125c0-4.265625 3.457031-7.726563 7.726563-7.726563 4.265625 0 7.726562 3.460938 7.726562 7.726563v12.828125c0 4.265625-3.460937 7.726562-7.726562 7.726562zm0 0" fill="#454545"/><path d="m197.210938 90.320312c13.621093-24.503906 31.457031-35.109374 32.105468-35.492187-27.949218 2.980469-51.59375 10.628906-71.027344 21.378906.40625.082031 17.871094 3.726563 38.921876 14.113281zm0 0" fill="#5ad6ff"/></svg>