<?xml version="1.0" encoding="utf-8"?>
<!-- Generator: Adobe Illustrator 19.0.0, SVG Export Plug-In . SVG Version: 6.00 Build 0)  -->
<svg version="1.1" id="Layer_1" xmlns="http://www.w3.org/2000/svg" xmlns:xlink="http://www.w3.org/1999/xlink" x="0px" y="0px"
	 viewBox="209 -26 467 100" style="enable-background:new 209 -26 467 100;" xml:space="preserve">
<style type="text/css">
	.st0{fill:#90B42E;}
</style>
<g>
	<g>
		<g>
			<g>
				<g>
					<path class="st0" d="M269.3,40.4l-1.4-2.5c5.1-2.9,8.4-8.1,8.9-13.9c-3,0.2-5.2,1.2-7.5,2.1c-2.9,1.2-6.2,2.6-11.5,2.6
						c-6.8,0-12.6-2.2-15.8-3.6c0.2,1.1,0.4,2.1,0.8,3.2l-2.8,0.9c-0.7-2.1-1.1-4.3-1.1-6.6v-2.6l2.2,1.3c0.1,0,7.6,4.4,16.6,4.4
						c4.6,0,7.4-1.2,10.3-2.4c2.8-1.2,5.7-2.4,10.1-2.4h1.2l0.3,1.7C279.8,30,275.8,36.8,269.3,40.4z"/>
					<path class="st0" d="M259.4,43c-5.6,0-10.8-2.2-14.7-6.3l2.1-2c3.3,3.5,7.8,5.4,12.6,5.4c0.7,0,1.4,0,2.1-0.1l0.4,2.9
						C261,43,260.2,43,259.4,43z"/>
					<path class="st0" d="M266.6,50.3c-2.4,0-4.3-1.5-5.1-4.1c-0.6-2-1.2-3.9-1.8-5.8c-0.3-1.1-0.7-2.2-1-3.4l2.8-0.8
						c0.4,1.2,0.7,2.3,1,3.4c0.6,1.9,1.1,3.7,1.7,5.7c0.2,0.7,0.9,2.2,2.5,2.1c0.9-0.1,1.4-0.5,1.6-0.9c0.4-0.6,0.6-1.4,0.4-2.2
						c-0.6-2.2-1.2-4.2-1.9-6.2c-0.3-1-0.7-2.1-1-3.2l2.8-0.9c0.3,1.1,0.7,2.1,1,3.2c0.7,2.1,1.3,4.1,1.9,6.4
						c0.4,1.6,0.1,3.3-0.8,4.6c-0.9,1.2-2.2,2-3.8,2.1C266.8,50.3,266.7,50.3,266.6,50.3z"/>
					<path class="st0" d="M237.8,42.6c-0.3,0-0.7,0-1-0.1c-1.5-0.3-2.7-1.2-3.5-2.5c-1.2-2.2-0.7-4.8,1.4-6.7c1.6-1.4,3-2.7,4.5-4
						c0.9-0.8,1.7-1.5,2.7-2.4l1.9,2.2c-0.9,0.8-1.8,1.6-2.7,2.4c-1.5,1.3-2.9,2.5-4.4,4c-0.5,0.5-1.6,1.7-0.8,3.1
						c0.4,0.8,1,1,1.5,1.1c0.7,0.1,1.5-0.1,2.2-0.6c2.3-1.9,5.5-4.7,8-7l1.2-1l1.9,2.2l-1.2,1c-2.6,2.3-5.8,5.2-8.1,7.1
						C240.4,42.1,239.1,42.6,237.8,42.6z"/>
					<path class="st0" d="M249.3,50.8c-1,0-1.9-0.3-2.8-0.8c-2.1-1.4-2.9-3.9-1.9-6.6c0.5-1.3,0.7-2,0.9-2.6
						c0.3-0.9,0.5-1.5,1.3-3.4l2.7,1c-0.7,1.9-0.9,2.5-1.2,3.4c-0.2,0.6-0.5,1.3-0.9,2.6c-0.2,0.7-0.6,2.3,0.7,3.2
						c0.7,0.5,1.4,0.4,1.8,0.3c0.7-0.2,1.3-0.8,1.6-1.5c0.9-2.2,1-2.4,1.4-3.4c0.2-0.5,0.4-1.1,0.8-2.1l2.7,1
						c-0.4,1-0.6,1.7-0.8,2.1c-0.4,1-0.5,1.3-1.4,3.5c-0.6,1.5-1.9,2.7-3.5,3.2C250.3,50.7,249.8,50.8,249.3,50.8z"/>
					<path class="st0" d="M279.1,43.1c-1.4,0-2.8-0.6-3.8-1.6c-1.8-1.7-2-1.9-2.7-2.7c-0.3-0.4-0.8-0.8-1.6-1.6l2.1-2
						c0.8,0.8,1.2,1.3,1.6,1.6c0.7,0.8,0.9,1,2.6,2.6c0.6,0.6,1.4,0.8,2.1,0.7c0.5-0.1,1.1-0.3,1.6-1c0.9-1.4-0.1-2.7-0.6-3.2
						c-1-1-1.5-1.6-2-2c-0.6-0.7-1.1-1.2-2.5-2.5l2.1-2c1.4,1.4,1.9,1.9,2.5,2.6c0.4,0.5,1,1,1.9,2c2,2.1,2.4,4.7,1,6.8
						c-0.9,1.3-2.2,2.1-3.7,2.3C279.5,43.1,279.3,43.1,279.1,43.1z"/>
				</g>
				<g>
					<path class="st0" d="M267.9-4.2h-5.1v25.5c2-0.3,3.6-0.8,5.1-1.4V-4.2z"/>
					<path class="st0" d="M261,21.6V1.5h-5.1v20.1c0.9,0.1,1.8,0.1,2.7,0.1C259.5,21.7,260.3,21.6,261,21.6z"/>
					<path class="st0" d="M254.1,12.8H249v7.5c1.6,0.4,3.3,0.8,5.1,1.1V12.8z"/>
				</g>
				<path class="st0" d="M259.1,72.6c-26.8,0-48.6-21.8-48.6-48.6c0-26.8,21.8-48.6,48.6-48.6c26.8,0,48.6,21.8,48.6,48.6
					C307.6,50.8,285.8,72.6,259.1,72.6z M259.1-18.7c-23.6,0-42.7,19.2-42.7,42.7c0,23.6,19.2,42.7,42.7,42.7
					c23.6,0,42.7-19.2,42.7-42.7C301.8,0.4,282.6-18.7,259.1-18.7z"/>
			</g>
			<g>
				<path class="st0" d="M360.5,45.3v-3.7c-1.3,1.6-2.6,2.7-4.1,3.3c-1.5,0.5-3,0.8-4.8,0.8c-1.6,0-3-0.2-4.3-0.7
					c-1.3-0.5-2.4-1.1-3.2-2c-0.8-0.8-1.4-1.7-1.9-2.7c-0.5-1-0.9-2.1-1.1-3.3c-0.3-1.2-0.5-2.4-0.6-3.6c-0.1-1.2-0.2-2.4-0.2-3.7
					c0-1.2,0.1-2.4,0.2-3.7c0.1-1.2,0.3-2.4,0.6-3.6c0.3-1.2,0.7-2.2,1.1-3.3s1.1-1.9,1.9-2.7c0.8-0.8,1.9-1.5,3.2-2
					c1.3-0.5,2.8-0.7,4.4-0.7c1.7,0,3.3,0.3,4.7,0.8c1.4,0.5,2.8,1.6,4,3.2l-0.1-17.5h4.6v45C365,45.3,360.5,45.3,360.5,45.3z
					 M360.2,25.3c-0.2-1.4-0.5-2.7-1.1-3.8c-0.5-1.1-1.3-2-2.4-2.7c-1-0.7-2.4-1-4.1-1c-1.7,0-3,0.3-4.1,1c-1,0.7-1.8,1.6-2.4,2.7
					c-0.5,1.1-0.9,2.4-1.1,3.8c-0.2,1.4-0.3,2.9-0.3,4.4c0,1.5,0.1,3,0.3,4.4c0.2,1.4,0.6,2.7,1.1,3.8c0.5,1.1,1.3,2,2.4,2.7
					c1,0.7,2.4,1,4.1,1s3-0.3,4.1-1c1-0.7,1.8-1.6,2.4-2.7c0.5-1.1,0.9-2.4,1.1-3.8c0.2-1.4,0.3-2.9,0.3-4.4
					C360.4,28.2,360.3,26.7,360.2,25.3z"/>
				<path class="st0" d="M394,45.3v-3c-1.3,1.3-2.6,2.1-3.9,2.6c-1.3,0.5-3,0.7-5.1,0.7c-2.1,0-3.9-0.2-5.3-0.7
					c-1.4-0.4-2.5-1.2-3.5-2.2c-0.8-0.8-1.3-1.7-1.7-2.8c-0.4-1.1-0.6-2.3-0.6-3.5c0-2.7,0.9-4.9,2.8-6.5c1.8-1.6,4.5-2.4,8-2.4h9.4
					v-3c0-2.3-0.6-4-1.8-5.1c-1.2-1.1-3.3-1.7-6.1-1.7c-2,0-3.6,0.3-4.7,0.8c-1.1,0.5-2.2,1.4-3.1,2.8l-3.1-2.8
					c1.4-1.8,2.9-3,4.6-3.7c1.7-0.6,3.8-0.9,6.4-0.9c4.2,0,7.3,0.9,9.4,2.6c2,1.7,3.1,4.3,3.1,7.7v21.1L394,45.3L394,45.3z
					 M394,30.9h-8.7c-4.6,0-7,1.8-7,5.5c0,1.8,0.6,3.1,1.7,4c1.1,0.9,3,1.3,5.4,1.3c1.4,0,2.6-0.1,3.8-0.3c1.2-0.2,2.2-0.8,3.2-1.8
					c1.1-1,1.6-2.8,1.6-5.4L394,30.9L394,30.9z"/>
				<path class="st0" d="M409.4,5.3V0.2h5.1v5.1H409.4z M409.7,45.3V14.2h4.6v31.1H409.7z"/>
				<path class="st0" d="M443,20.1c-0.8-0.8-1.6-1.4-2.4-1.8c-0.8-0.3-1.8-0.5-3-0.5c-1.1,0-2.2,0.2-3.1,0.6c-0.9,0.4-1.7,1-2.3,1.8
					c-0.6,0.8-1.1,1.6-1.5,2.7c-0.4,1-0.5,2.1-0.5,3.3v19.1h-4.6V14.2h4.6V18c0.8-1.3,2.1-2.3,3.6-3.1c1.6-0.7,3.3-1.1,5.1-1.1
					c1.5,0,2.8,0.2,4,0.6c1.2,0.4,2.4,1.2,3.4,2.3L443,20.1z"/>
				<path class="st0" d="M460,52.8c-0.6,1.6-1.3,2.9-2.2,3.7c-0.8,0.8-1.8,1.4-2.8,1.7c-1.1,0.3-2.1,0.5-3.2,0.5h-2v-4h1.4
					c1.6,0,2.7-0.3,3.3-0.9c0.7-0.6,1.3-1.6,1.8-3l2.2-6.1l-11.2-30.5h4.9l8.5,25l8.5-25h4.9L460,52.8z"/>
				<path class="st0" d="M500.4,45.3V26.1c0-2.8-0.7-4.9-2.1-6.2c-1.4-1.4-3.2-2.1-5.6-2.1c-2.4,0-4.2,0.7-5.6,2.1
					c-1.4,1.4-2.1,3.5-2.1,6.2v19.2h-4.5V14.2h4.5v3.4c1.1-1.3,2.4-2.2,3.9-2.8c1.5-0.6,3.1-0.9,4.9-0.9c3.4,0,6,1,8,2.9
					c2.1,2.1,3.2,5,3.2,8.7v19.9L500.4,45.3L500.4,45.3z"/>
				<path class="st0" d="M539.1,36.5c-0.5,2.1-1.5,4-3.1,5.6c-1.1,1.1-2.4,2-3.9,2.6c-1.5,0.6-3.2,0.9-5.1,0.9
					c-1.9,0-3.6-0.3-5.1-0.9c-1.5-0.6-2.8-1.5-3.9-2.6c-0.8-0.8-1.4-1.7-1.9-2.6c-0.5-0.9-0.9-1.9-1.1-3c-0.3-1-0.5-2.1-0.6-3.3
					c-0.1-1.1-0.2-2.3-0.2-3.5c0-1.2,0.1-2.3,0.2-3.5c0.1-1.2,0.3-2.3,0.6-3.3c0.3-1,0.7-2,1.1-3c0.5-0.9,1.1-1.8,1.9-2.6
					c1.1-1.1,2.4-2,3.9-2.6c1.5-0.6,3.2-0.9,5.1-0.9c1.9,0,3.6,0.3,5.1,0.9c1.5,0.6,2.8,1.5,3.9,2.6c1.6,1.6,2.6,3.5,3.1,5.6
					c0.5,2.1,0.7,4.4,0.7,6.8C539.8,32.1,539.6,34.4,539.1,36.5z M535.2,27.1c0-0.9-0.1-1.7-0.3-2.6c-0.2-0.8-0.4-1.6-0.8-2.4
					c-0.3-0.7-0.8-1.4-1.3-2c-1.5-1.5-3.4-2.3-5.7-2.3c-2.2,0-4.1,0.8-5.6,2.3c-0.6,0.6-1,1.3-1.4,2c-0.3,0.7-0.6,1.5-0.8,2.4
					c-0.2,0.8-0.3,1.7-0.3,2.6c0,0.9-0.1,1.8-0.1,2.7s0,1.8,0.1,2.7c0,0.9,0.2,1.7,0.3,2.6c0.2,0.8,0.4,1.6,0.8,2.4
					c0.3,0.8,0.8,1.4,1.4,2c1.5,1.5,3.4,2.3,5.6,2.3c2.3,0,4.2-0.8,5.7-2.3c0.6-0.6,1-1.2,1.3-2c0.3-0.8,0.6-1.6,0.8-2.4
					c0.2-0.8,0.3-1.7,0.3-2.6c0-0.9,0.1-1.8,0.1-2.7C535.3,28.9,535.2,28,535.2,27.1z"/>
				<path class="st0" d="M589.5,45.3V26.1c0-2.8-0.7-4.9-2.1-6.2c-1.4-1.4-3.2-2.1-5.6-2.1c-2.3,0-4.1,0.7-5.6,2
					c-1.5,1.3-2.2,3.3-2.2,5.8v19.7h-4.5V26.1c0-2.8-0.7-4.9-2.1-6.2c-1.4-1.4-3.2-2.1-5.6-2.1c-2.4,0-4.2,0.7-5.6,2.1
					c-1.4,1.4-2.1,3.5-2.1,6.2v19.2h-4.6V14.2h4.6v3.4c1.1-1.3,2.4-2.2,3.9-2.8c1.5-0.6,3.1-0.9,4.9-0.9c2.2,0,4,0.4,5.7,1.3
					c1.6,0.9,2.9,2.2,3.9,3.9c2.4-3.5,5.9-5.2,10.2-5.2c1.7,0,3.2,0.3,4.6,0.8c1.3,0.5,2.5,1.2,3.5,2.1c2.2,2.2,3.4,5,3.4,8.7v19.9
					L589.5,45.3L589.5,45.3z"/>
				<path class="st0" d="M604.8,5.3V0.2h5.1v5.1H604.8z M605.1,45.3V14.2h4.5v31.1H605.1z"/>
				<path class="st0" d="M638.7,44.7c-1.5,0.7-3.4,1-5.5,1c-2,0-3.8-0.3-5.5-1c-1.7-0.6-3.1-1.6-4.4-3c-1.2-1.3-2.2-3-2.9-5
					c-0.7-2-1-4.3-1-7c0-2.7,0.3-5,1-7c0.7-2,1.7-3.6,2.9-5c1.2-1.3,2.7-2.3,4.4-3c1.7-0.7,3.5-1,5.5-1c2.1,0,4,0.3,5.5,1
					c1.5,0.7,3.1,1.9,4.7,3.6l-3.1,2.9c-1.2-1.3-2.3-2.2-3.3-2.7c-1.1-0.5-2.3-0.8-3.8-0.8c-1.5,0-2.9,0.3-4.1,0.9
					c-1.2,0.6-2.3,1.5-3.1,2.7c-0.7,1-1.2,2.2-1.5,3.4c-0.3,1.3-0.5,2.9-0.5,4.9c0,2,0.2,3.6,0.5,4.9c0.3,1.3,0.8,2.4,1.5,3.4
					c0.8,1.2,1.9,2.1,3.1,2.7c1.2,0.6,2.6,0.9,4.1,0.9c1.5,0,2.7-0.3,3.8-0.8c1.1-0.5,2.2-1.4,3.3-2.7l3.1,3
					C641.8,42.8,640.2,44,638.7,44.7z"/>
				<path class="st0" d="M673.6,40.2c-0.6,1.2-1.5,2.1-2.6,3c-1.1,0.8-2.4,1.4-4,1.9c-1.5,0.4-3.3,0.6-5.2,0.6c-2.7,0-5-0.3-7.1-1
					c-2.1-0.7-4-1.8-5.7-3.5l3-3c1.2,1.3,2.7,2.2,4.3,2.8c1.6,0.5,3.4,0.8,5.4,0.8c2.6,0,4.6-0.4,6.1-1.4c1.5-0.9,2.2-2.3,2.2-4.1
					c0-1.4-0.4-2.4-1.2-3.2c-0.8-0.8-2.1-1.2-4-1.4l-5.1-0.4c-3-0.3-5.3-1.1-6.9-2.4c-1.6-1.4-2.4-3.3-2.4-5.9
					c0-1.4,0.3-2.7,0.9-3.8c0.6-1.1,1.4-2.1,2.4-2.8c1-0.8,2.2-1.4,3.6-1.8c1.4-0.4,2.9-0.6,4.6-0.6c2.2,0,4.3,0.3,6.2,0.8
					c1.9,0.5,3.6,1.4,5,2.5l-3,3c-1.1-0.8-2.3-1.5-3.8-1.9c-1.4-0.4-2.9-0.6-4.5-0.6c-2.3,0-4,0.5-5.2,1.4c-1.2,0.9-1.8,2.2-1.8,3.8
					c0,1.3,0.4,2.4,1.2,3.2c0.8,0.8,2.2,1.2,4.2,1.4l5,0.4c1.3,0.1,2.6,0.4,3.7,0.7c1.1,0.3,2.1,0.8,2.9,1.5
					c0.8,0.7,1.4,1.5,1.9,2.5c0.4,1,0.7,2.2,0.7,3.7C674.5,37.7,674.2,39,673.6,40.2z"/>
			</g>
		</g>
	</g>
</g>
</svg>
